<?xml version="1.0" encoding="UTF-8" standalone="no"?>
<svg version="1.1" x="0px" y="0px" viewBox="0 0 440 440" xml:space="preserve" id="svg42" width="440" height="440" xmlns="http://www.w3.org/2000/svg" xmlns:svg="http://www.w3.org/2000/svg">
    <style type="text/css" id="style2">.st1{fill:url(#SVGID_1_);} .st2{display:none;} .st3{display:inline;fill:#CCCCCC;}</style>
    <g id="Logo" transform="translate(-167.34921,-168.1149)">
        <linearGradient id="SVGID_1_" gradientUnits="userSpaceOnUse" x1="235.81129" y1="548.21899" x2="540.59918" y2="243.43111" gradientTransform="matrix(1,-0.001992,0.001992,1,-0.7765,-6.0276)">
            <stop offset="0" style="stop-color:#00A595" id="stop23" />
            <stop offset="0.4813" style="stop-color:#00C959" id="stop25" />
            <stop offset="1" style="stop-color:#9CE142" id="stop27" />
        </linearGradient>
        <path class="st1" d="m 258.97,240.6 c 40.72,-26.78 76.97,-32.65 110.28,-25.5 0,0 0,-0.01 0,-0.01 13.87,0.52 9.38,-8.52 3.01,-12.53 -8.39,-5.03 -16.87,-9.55 -25.45,-13.41 -6.23,-2.8 -12.38,-5.2 -18.46,-7.2 l -35.8,9.67 c -10.67,2.88 -20.39,8.52 -28.19,16.35 l -57.7,57.93 c -7.8,7.83 -13.4,17.57 -16.24,28.25 l -2.19,8.24 c 22.31,-22.75 45.47,-45.16 70.74,-61.79 z m 251.2,143 c -0.03,-0.02 -0.07,-0.05 -0.07,-0.05 8.88,4.41 17.23,-0.19 6.23,-8.66 -71.12,-54.2 -145.36,-100.09 -229.78,-70.23 -43.92,15.53 -81.98,45.49 -118.54,75.62 -1.23,8.48 -0.75,17.15 1.5,25.47 l 7.18,26.57 c 0.06,-0.05 0.13,-0.1 0.19,-0.15 44.35,-34.43 90.21,-70.04 146.64,-83.67 62.87,-15.19 126.17,4.47 186.65,35.1 z m 70.29,-31.34 c 8.57,5.39 16.84,10.07 24.87,14.07 l -19.71,-72.97 c -2.88,-10.67 -8.52,-20.39 -16.35,-28.19 l -57.93,-57.7 c -7.83,-7.8 -17.57,-13.4 -28.25,-16.24 l -79.01,-21 c -10.68,-2.84 -21.92,-2.82 -32.59,0.06 l -18.42,4.97 c 45.55,24.86 80.87,47.96 134.92,101.19 53.04,52.26 61.72,56.47 92.47,75.81 z M 337.53,528.62 c -36.44,-0.62 -67.62,6.59 -96.28,18.2 l 23.84,23.75 c 7.83,7.8 17.57,13.4 28.25,16.24 l 79.02,21 c 10.68,2.84 21.92,2.82 32.59,-0.06 l 78.93,-21.32 c 10.67,-2.88 20.39,-8.52 28.19,-16.35 l 1.53,-1.54 C 455.38,546.27 396.44,529.62 337.53,528.62 Z M 608.94,384.65 c -56.3,-28.37 -93.16,-63.84 -102.3,-73.01 -42.98,-43.16 -142.72,-141.27 -244.56,-66.32 -26.44,19.46 -52.53,43.23 -76.76,68.16 l -11.29,42.48 c 32.89,-26.46 67.54,-51.35 107.51,-65.49 104.7,-37.03 191.5,31.07 275.44,96.94 15.5,12.16 30.57,23.98 45.41,34.85 L 606.98,405 c 1.43,-5.38 2.13,-10.9 2.11,-16.41 -0.02,-1.31 -0.07,-2.63 -0.15,-3.94 z M 324.83,353.99 c -55.25,13.35 -100.62,48.58 -144.5,82.65 -0.68,0.53 -1.37,1.06 -2.06,1.6 l 12.55,46.45 c 1.09,4.05 2.59,7.95 4.44,11.67 5.75,-4.14 11.45,-8.29 17.1,-12.42 47.64,-34.8 96.9,-70.79 162.8,-78.53 71.49,-8.39 147.02,15.95 219.1,47.42 l 3.18,-11.97 C 512.6,387.59 417.68,331.55 324.83,353.99 Z m 52.09,66.35 c -39.12,4.59 -71.68,19.54 -102.49,38.79 -10.97,7.1 -6.77,14.41 3.77,11.29 0.01,0 0.02,-0.01 0.03,-0.01 21.13,-6.84 44.44,-10.92 71.35,-10.83 75.82,0.28 150.74,21.6 224.12,48.18 5.75,-6.97 9.97,-15.1 12.31,-23.87 l 4.35,-16.36 C 519.5,436.45 445.58,412.28 376.92,420.34 Z m -169.93,92.34 c 0.06,0.06 0.12,0.13 0.18,0.19 l 22.48,22.39 c 31.77,-13.69 66.56,-22.38 108.14,-21.68 63.27,1.08 125.88,19.33 187.42,43.31 L 569.63,512.3 C 497.4,486.26 423.75,465.51 349.56,465.24 288.93,465.01 248.17,485.67 206.99,512.68 Z" id="path30" style="fill:url(#SVGID_1_)" />
    </g>
</svg>